<svg version="1.2" xmlns="http://www.w3.org/2000/svg" viewBox="0 0 900 555" width="900" height="555">
	<title>sql-document-outlined-interface-symbol_icon-icons</title>
	<style>
		.s0 { fill: #000000 } 
		.s1 { fill: #010002 } 
	</style>
	<g id="Layer">
		<g id="Layer">
			<path id="Layer" class="s0" d="m555.4 286.9h19.1c11.5 0 19.1 9.5 19.1 19.1h19.2c0-21-17.3-38.2-38.3-38.2h-19.1c-21.1 0-38.3 17.2-38.3 38.2 0 21 17.2 38.3 38.3 38.3h19.1c11.5 0 19.1 7.6 19.1 19.1 0 11.5-7.6 19.1-19.1 19.1h-19.1c-11.5 0-19.1-9.6-19.1-19.1h-19.2c0 21 17.2 38.2 38.3 38.2h19.1c21 0 38.3-17.2 38.3-38.2 0-21.1-17.3-38.3-38.3-38.3h-19.1c-11.5 0-19.1-7.6-19.1-19.1 0-11.5 7.6-19.1 19.1-19.1z"/>
			<path id="Layer" fill-rule="evenodd" class="s0" d="m899.6 267.8v133.8c0 32.5-24.8 57.4-57.4 57.4h-133.8v38.2c0 21.1-17.2 38.3-38.3 38.3h-286.9c-21 0-38.2-17.2-38.2-38.3v-439.8c0-21.1 17.2-38.3 38.2-38.3h210.4l114.8 133.9v57.4h133.8c32.6 0 57.4 24.8 57.4 57.3zm-210.4 191.3h-172.1c-32.5 0-57.4-24.9-57.4-57.4v-133.9c0-32.5 24.9-57.3 57.4-57.3h172.1v-38.3h-76.5c-21 0-38.2-17.2-38.2-38.2v-95.7h-191.3c-11.4 0-19.1 9.6-19.1 19.2v439.8c0 11.5 9.6 19.2 19.1 19.2h286.9c11.5 0 19.1-9.6 19.1-19.2zm-95.6-325.1c0 9.6 9.6 19.1 19.1 19.1h70.8l-89.9-105.1zm286.9 133.8c0-21-17.2-38.2-38.2-38.2h-325.2c-21 0-38.2 17.2-38.2 38.2v133.9c0 21 17.2 38.3 38.2 38.3h325.1c21.1 0 38.3-17.3 38.3-38.3z"/>
			<path id="Layer" fill-rule="evenodd" class="s0" d="m717.9 388.2l15.3 15.3-13.4 13.4-17.2-17.2c-3.8 1.9-9.5 1.9-13.3 1.9h-19.2c-21 0-38.2-17.2-38.2-38.2v-57.4c0-21 17.2-38.2 38.2-38.2h19.2c21 0 38.2 17.2 38.2 38.2v57.4c0 9.5-3.8 19.1-9.6 24.8zm-9.5-82.2c0-11.5-7.7-19.1-19.1-19.1h-19.2c-11.5 0-19.1 7.6-19.1 19.1v57.4c0 11.5 7.6 19.1 19.1 19.1h15.3l-21-21 13.4-13.4 26.7 26.8c2-3.9 3.9-7.7 3.9-11.5z"/>
			<path id="Layer" class="s0" d="m765.8 267.8l-19.2-0.1v133.9h95.7v-19.1h-76.5z"/>
		</g>
	</g>
	<g id="Layer">
	</g>
	<g id="Layer">
	</g>
	<g id="Layer">
	</g>
	<g id="Layer">
	</g>
	<g id="Layer">
	</g>
	<g id="Layer">
	</g>
	<g id="Layer">
	</g>
	<g id="Layer">
	</g>
	<g id="Layer">
	</g>
	<g id="Layer">
	</g>
	<g id="Layer">
	</g>
	<g id="Layer">
	</g>
	<g id="Layer">
	</g>
	<g id="Layer">
	</g>
	<g id="Layer">
	</g>
	<path id="Layer" class="s1" d="m307.3 319.4c0-3.5 2.9-6.4 6.5-6.4 3.5 0 6.4 2.9 6.4 6.4 0 3.6-2.9 6.5-6.4 6.5-3.6 0-6.5-2.9-6.5-6.5z"/>
	<path id="Layer" fill-rule="evenodd" class="s1" d="m278.5 321.4c-17.3-14.6-37.8-31-54-35.3-24.1-6.5-92.2-0.4-116.9-10.4-38.7-15.6-62.9-50.9-51.9-84.5 4.8-14.4 15.4-26.5 30-33.8 18.1-9.2 40.7-10.4 62-3.4 20.8 6.8 37 20.6 46.3 37 10.2 13.3 24.6 39.8 39.6 58.1 23.7 28.8 27.3 17 86.3 44.6l273.1 133.1c-0.7 6.7-12.9 11.1-89.6-10.2-67.3-18.7-163.6-59.2-183.5-67.4-19.9-8.2-30.6-17.8-41.4-27.8zm-182.7-143.9c-9.4 4.7-15.9 11.9-18.7 20.8-7.2 21.7 9.6 46.9 37.5 56.1 27.8 9.2 56.4-1.1 63.5-22.9 7.2-21.8-9.6-47-37.5-56.2-15.6-5.1-31.9-4.3-44.8 2.2z"/>
	<path id="Layer" fill-rule="evenodd" class="s1" d="m319.9 290.8c19.9-8.2 116.1-48.6 183.5-67.3 76.7-21.3 88.9-17 89.6-10.2l-273.1 133.1c-59.1 27.6-62.7 15.8-86.3 44.6-15 18.3-29.4 44.8-39.7 58.1-9.2 16.4-25.4 30.2-46.3 37-21.2 7-43.8 5.7-62-3.5-14.6-7.3-25.2-19.4-29.9-33.8-11.1-33.6 13.2-68.9 51.9-84.6 24.7-9.9 92.7-3.8 116.8-10.3 16.3-4.3 36.7-20.7 54.1-35.3 10.8-10 21.5-19.6 41.4-27.8zm-179.3 173.9c27.9-9.2 44.8-34.4 37.6-56.2-7.2-21.8-35.7-32-63.6-22.9-27.8 9.2-44.7 34.4-37.5 56.2 2.9 8.8 9.4 16 18.7 20.7 12.9 6.6 29.2 7.3 44.8 2.2z"/>
</svg>